<mxfile host="app.diagrams.net" modified="2023-11-17T19:25:23.302Z" agent="Mozilla/5.0 (Windows NT 10.0; Win64; x64) AppleWebKit/537.36 (KHTML, like Gecko) Chrome/119.0.0.0 Safari/537.36" version="22.1.3" etag="Wrsw8a3toDAGxCBXmzeB" type="github">
  <diagram name="Page-1" id="eK4l6jRl4B-5ro677all">
    <mxGraphModel>
      <root>
        <mxCell id="0" />
        <mxCell id="1" parent="0" />
      </root>
    </mxGraphModel>
  </diagram>
</mxfile>
